<svg width="189" height="24" viewBox="0 0 189 24" fill="none" xmlns="http://www.w3.org/2000/svg">
<path d="M8.07562 22.3049H5.38375C4.91374 22.3049 4.67873 22.0805 4.67873 21.6319V5.5768C4.67873 5.34179 4.56123 5.22429 4.32622 5.22429H0.672968C0.224323 5.22429 0 4.99997 0 4.55132V2.37219C0 1.92354 0.224323 1.69922 0.672968 1.69922H12.7864C13.235 1.69922 13.4594 1.92354 13.4594 2.37219V4.55132C13.4594 4.99997 13.235 5.22429 12.7864 5.22429H9.13314C8.87677 5.22429 8.74859 5.34179 8.74859 5.5768V21.6319C8.74859 22.0805 8.52426 22.3049 8.07562 22.3049Z" fill="white"/>
<path d="M19.3033 22.3049H16.5794C16.1307 22.3049 15.9064 22.0805 15.9064 21.6319V2.37219C15.9064 1.92354 16.1307 1.69922 16.5794 1.69922H19.3033C19.7519 1.69922 19.9762 1.92354 19.9762 2.37219V9.90302C19.9762 10.138 20.1044 10.2555 20.3608 10.2555H25.7766C26.0116 10.2555 26.1291 10.138 26.1291 9.90302V2.37219C26.1291 1.92354 26.3534 1.69922 26.8021 1.69922H29.526C29.9746 1.69922 30.1989 1.92354 30.1989 2.37219V21.6319C30.1989 22.0805 29.9746 22.3049 29.526 22.3049H26.8021C26.3534 22.3049 26.1291 22.0805 26.1291 21.6319V14.1331C26.1291 13.8981 26.0116 13.7806 25.7766 13.7806H20.3608C20.1044 13.7806 19.9762 13.8981 19.9762 14.1331V21.6319C19.9762 22.0805 19.7519 22.3049 19.3033 22.3049Z" fill="white"/>
<path d="M45.5225 22.3049H35.0434C34.5948 22.3049 34.3704 22.0805 34.3704 21.6319V2.37219C34.3704 1.92354 34.5948 1.69922 35.0434 1.69922H45.5225C45.9498 1.69922 46.1634 1.92354 46.1634 2.37219V4.55132C46.1634 4.99997 45.9498 5.22429 45.5225 5.22429H38.8249C38.5685 5.22429 38.4403 5.34179 38.4403 5.5768V9.74279C38.4403 9.97779 38.5685 10.0953 38.8249 10.0953H44.3047C44.7534 10.0953 44.9777 10.3196 44.9777 10.7683V12.9474C44.9777 13.396 44.7534 13.6204 44.3047 13.6204H38.8249C38.5685 13.6204 38.4403 13.7379 38.4403 13.9729V18.4273C38.4403 18.6623 38.5685 18.7798 38.8249 18.7798H45.5225C45.9498 18.7798 46.1634 19.0041 46.1634 19.4528V21.6319C46.1634 22.0805 45.9498 22.3049 45.5225 22.3049Z" fill="white"/>
<path d="M79.1332 22.3049H76.4093C75.9607 22.3049 75.7363 22.0805 75.7363 21.6319V2.37219C75.7363 1.92354 75.9607 1.69922 76.4093 1.69922H84.2285C85.8949 1.69922 87.1875 2.15855 88.1061 3.0772C89.0248 3.97449 89.4841 5.25634 89.4841 6.92273V9.99916C89.4841 11.6656 89.0248 12.9581 88.1061 13.8767C87.1875 14.774 85.8949 15.2227 84.2285 15.2227H80.1907C79.9344 15.2227 79.8062 15.3402 79.8062 15.5752V21.6319C79.8062 22.0805 79.5819 22.3049 79.1332 22.3049ZM80.1587 11.6656H83.5556C84.2392 11.6656 84.7199 11.5267 84.9977 11.249C85.2754 10.9499 85.4143 10.4692 85.4143 9.80688V7.11501C85.4143 6.43136 85.2754 5.95067 84.9977 5.67293C84.7199 5.37384 84.2392 5.22429 83.5556 5.22429H80.1587C79.9237 5.22429 79.8062 5.34179 79.8062 5.5768V11.313C79.8062 11.5481 79.9237 11.6656 80.1587 11.6656Z" fill="white"/>
<path d="M103.946 22.3049H93.4025C92.9538 22.3049 92.7295 22.0805 92.7295 21.6319V2.37219C92.7295 1.92354 92.9538 1.69922 93.4025 1.69922H96.1264C96.5751 1.69922 96.7994 1.92354 96.7994 2.37219V18.3952C96.7994 18.6302 96.9276 18.7477 97.1839 18.7477H103.946C104.373 18.7477 104.587 18.9828 104.587 19.4528V21.6319C104.587 22.0805 104.373 22.3049 103.946 22.3049Z" fill="white"/>
<path d="M109.272 22.3049H106.196C105.811 22.3049 105.683 22.0805 105.811 21.6319L110.875 2.37219C111.024 1.92354 111.345 1.69922 111.836 1.69922H116.098C116.632 1.69922 116.953 1.92354 117.06 2.37219L122.123 21.6319C122.251 22.0805 122.123 22.3049 121.738 22.3049H118.662C118.427 22.3049 118.267 22.2621 118.181 22.1767C118.096 22.0699 118.032 21.8883 117.989 21.6319L117.092 18.1068H110.843L109.945 21.6319C109.903 21.8883 109.828 22.0699 109.721 22.1767C109.636 22.2621 109.486 22.3049 109.272 22.3049ZM113.919 5.5768L111.612 14.8381H116.355L114.047 5.5768H113.919Z" fill="white"/>
<path d="M133.424 22.3049H129.931C128.243 22.3049 126.94 21.8562 126.021 20.9589C125.102 20.0616 124.643 18.7691 124.643 17.0813V6.92273C124.643 5.23497 125.102 3.94245 126.021 3.04515C126.94 2.14786 128.243 1.69922 129.931 1.69922H133.424C135.09 1.69922 136.382 2.15855 137.301 3.0772C138.241 3.97449 138.711 5.25634 138.711 6.92273V8.4289C138.711 8.89891 138.476 9.13391 138.006 9.13391H135.314C134.866 9.13391 134.641 8.89891 134.641 8.4289V7.11501C134.641 6.43136 134.492 5.95067 134.193 5.67293C133.915 5.37384 133.434 5.22429 132.751 5.22429H130.571C129.909 5.22429 129.428 5.37384 129.129 5.67293C128.852 5.95067 128.713 6.43136 128.713 7.11501V16.8891C128.713 17.5727 128.852 18.0641 129.129 18.3632C129.428 18.6409 129.909 18.7798 130.571 18.7798H132.751C133.434 18.7798 133.915 18.6409 134.193 18.3632C134.492 18.0641 134.641 17.5727 134.641 16.8891V15.5752C134.641 15.1052 134.866 14.8702 135.314 14.8702H138.006C138.476 14.8702 138.711 15.1052 138.711 15.5752V17.0813C138.711 18.7477 138.241 20.0403 137.301 20.9589C136.382 21.8562 135.09 22.3049 133.424 22.3049Z" fill="white"/>
<path d="M153.359 22.3049H142.88C142.431 22.3049 142.207 22.0805 142.207 21.6319V2.37219C142.207 1.92354 142.431 1.69922 142.88 1.69922H153.359C153.786 1.69922 154 1.92354 154 2.37219V4.55132C154 4.99997 153.786 5.22429 153.359 5.22429H146.661C146.405 5.22429 146.277 5.34179 146.277 5.5768V9.74279C146.277 9.97779 146.405 10.0953 146.661 10.0953H152.141C152.59 10.0953 152.814 10.3196 152.814 10.7683V12.9474C152.814 13.396 152.59 13.6204 152.141 13.6204H146.661C146.405 13.6204 146.277 13.7379 146.277 13.9729V18.4273C146.277 18.6623 146.405 18.7798 146.661 18.7798H153.359C153.786 18.7798 154 19.0041 154 19.4528V21.6319C154 22.0805 153.786 22.3049 153.359 22.3049Z" fill="white"/>
<path d="M55.75 10.7556L49.2065 4.21211L52.9187 0.5L59.4621 7.04349V10.7556H55.75Z" fill="#00FF47"/>
<path d="M62.087 7.04349V10.7556H65.7991L72.3426 4.21211L68.6305 0.5L62.087 7.04349Z" fill="#00FF47"/>
<path d="M65.7991 13.3805H62.087V17.0926L68.6305 23.6361L72.3426 19.924L65.7991 13.3805Z" fill="#00FF47"/>
<path d="M59.4621 17.0926L52.9187 23.6361L49.2065 19.924L55.75 13.3805H59.4621V17.0926Z" fill="#00FF47"/>
<path d="M163.13 1.5V8.5H166.33C167.53 8.5 168.39 7.78 168.39 6.6C168.39 5.56 167.71 5.16 167.21 5.02V4.92C167.71 4.77 168.35 4.38 168.35 3.36C168.35 2.22 167.51 1.5 166.29 1.5H163.13ZM164.45 2.7H166.15C166.71 2.7 167.09 3.02 167.09 3.54C167.09 4.06 166.71 4.38 166.15 4.38H164.45V2.7ZM164.45 5.58H166.17C166.75 5.58 167.13 5.9 167.13 6.44C167.13 6.98 166.75 7.3 166.17 7.3H164.45V5.58Z" fill="#E6EAFF" fill-opacity="0.6"/>
<path d="M170.272 1.5V8.5H174.932V7.3H171.592V5.57H174.592V4.37H171.592V2.7H174.872V1.5H170.272Z" fill="#E6EAFF" fill-opacity="0.6"/>
<path d="M176.29 1.5V2.7H178.41V8.5H179.73V2.7H181.85V1.5H176.29Z" fill="#E6EAFF" fill-opacity="0.6"/>
<path d="M184.317 1.5L182.357 8.5H183.707L184.127 6.94H186.567L186.987 8.5H188.337L186.377 1.5H184.317ZM184.447 5.74L185.297 2.58H185.397L186.247 5.74H184.447Z" fill="#E6EAFF" fill-opacity="0.6"/>
</svg>
